<?xml version="1.0" encoding="UTF-8" standalone="no"?>
<!-- Created with Inkscape (http://www.inkscape.org/) -->

<svg
   xmlns:dc="http://purl.org/dc/elements/1.1/"
   xmlns:cc="http://creativecommons.org/ns#"
   xmlns:rdf="http://www.w3.org/1999/02/22-rdf-syntax-ns#"
   xmlns:svg="http://www.w3.org/2000/svg"
   xmlns="http://www.w3.org/2000/svg"
   xmlns:sodipodi="http://sodipodi.sourceforge.net/DTD/sodipodi-0.dtd"
   xmlns:inkscape="http://www.inkscape.org/namespaces/inkscape"
   width="88.522247mm"
   height="88.357018mm"
   viewBox="0 0 88.522247 88.357018"
   version="1.1"
   id="svg992"
   inkscape:version="0.92.2 5c3e80d, 2017-08-06"
   sodipodi:docname="baking.svg">
  <defs
     id="defs986">
    <clipPath
       clipPathUnits="userSpaceOnUse"
       id="clipPath1600">
      <rect
         style="opacity:1;fill:#ffffff;fill-opacity:1;fill-rule:nonzero;stroke:#000000;stroke-width:0.5287351;stroke-miterlimit:4;stroke-dasharray:none;stroke-dashoffset:0;stroke-opacity:1"
         id="rect1602"
         width="66.478882"
         height="36.3578"
         x="-216.29457"
         y="-57.059109"
         transform="matrix(-0.56770141,-0.82323454,0.82488786,-0.5652964,0,0)" />
    </clipPath>
  </defs>
  <sodipodi:namedview
     id="base"
     pagecolor="#ffffff"
     bordercolor="#666666"
     borderopacity="1.0"
     inkscape:pageopacity="0.0"
     inkscape:pageshadow="2"
     inkscape:zoom="1.979899"
     inkscape:cx="84.877195"
     inkscape:cy="126.18326"
     inkscape:document-units="mm"
     inkscape:current-layer="layer1"
     showgrid="false"
     fit-margin-top="0"
     fit-margin-left="0"
     fit-margin-right="0"
     fit-margin-bottom="0"
     inkscape:pagecheckerboard="true"
     inkscape:snap-nodes="false"
     inkscape:window-width="1925"
     inkscape:window-height="1156"
     inkscape:window-x="2"
     inkscape:window-y="0"
     inkscape:window-maximized="0" />
  <metadata
     id="metadata989">
    <rdf:RDF>
      <cc:Work
         rdf:about="">
        <dc:format>image/svg+xml</dc:format>
        <dc:type
           rdf:resource="http://purl.org/dc/dcmitype/StillImage" />
        <dc:title />
      </cc:Work>
    </rdf:RDF>
  </metadata>
  <g
     inkscape:label="Layer 1"
     inkscape:groupmode="layer"
     id="layer1"
     transform="translate(-62.645282,-19.756739)">
    <path
       style="fill:#ffffff;fill-opacity:1;stroke:#000000;stroke-width:0.29800001;stroke-linecap:butt;stroke-linejoin:miter;stroke-miterlimit:4;stroke-dasharray:none;stroke-opacity:1"
       d="M 75.934246,83.521108 126.11664,35.250251 c 5.64227,1.78277 11.19619,8.83134 11.33932,10.866055 L 87.303882,95.118188 c -2.83421,-0.2623 -10.936516,-6.54583 -11.369636,-11.59708 z"
       id="path1537"
       inkscape:connector-curvature="0"
       sodipodi:nodetypes="ccccc" />
    <path
       style="fill:#ffffff;fill-opacity:1;stroke:#000000;stroke-width:0.32699999;stroke-linecap:butt;stroke-linejoin:miter;stroke-miterlimit:4;stroke-dasharray:none;stroke-opacity:1"
       d="m 125.57721,106.54684 c 3.51574,0.56503 4.62747,-1.95065 5.87878,-3.29376 0.85075,-0.38581 -23.14017,-32.85558 -30.57749,-46.625184 -1.765157,-3.268035 3.12281,-3.800203 3.0608,-7.538458 -0.15707,-9.466815 -16.70062,-29.129594 -16.70062,-29.129594 0,0 -19.475635,9.553293 -17.169343,16.076891 2.394701,6.773658 11.363459,22.634846 17.116631,23.917827 2.42535,0.540858 6.287438,-2.995596 8.569948,-0.01905 10.770164,14.04503 29.109084,47.638908 29.821294,46.611328 z"
       id="path1555"
       inkscape:connector-curvature="0"
       sodipodi:nodetypes="ccsscsssc" />
    <path
       style="fill:#ffffff;fill-opacity:1;stroke:#000000;stroke-width:0.38800001;stroke-linecap:butt;stroke-linejoin:miter;stroke-miterlimit:4;stroke-dasharray:none;stroke-opacity:1"
       d="m 130.58563,37.559086 c 0,0 0.73008,-1.029435 1.30778,-1.158104 0.56144,-0.125043 1.28397,0.875274 1.66045,0.4726 5.31296,-5.682651 8.29673,-11.128256 13.27848,-13.895956 1.59476,-0.885997 5.00616,2.304039 3.94012,3.748505 -3.32744,4.508604 -11.98995,9.805096 -14.73798,12.371063 -0.372,0.347366 0.56842,0.994198 0.4113,1.481609 -0.19771,0.613348 -1.52157,1.250287 -1.52157,1.250287 -1.43244,-1.756614 -2.86299,-3.558607 -4.33858,-4.270004 z"
       id="path1539"
       inkscape:connector-curvature="0"
       sodipodi:nodetypes="csssssscc" />
    <path
       sodipodi:nodetypes="csssssscc"
       inkscape:connector-curvature="0"
       id="path1541"
       d="m 82.737411,92.499558 c 0,0 -0.68698,1.05868 -1.25889,1.21107 -0.5558,0.1481 -1.318979,-0.82155 -1.678529,-0.40369 -5.073981,5.89701 -7.83055,11.461082 -12.693871,14.431952 -1.556849,0.95104 -5.09696,-2.09553 -4.09142,-3.58275 3.138591,-4.642052 11.57521,-10.291422 14.215041,-12.968572 0.357349,-0.36242 -0.60895,-0.9699 -0.472081,-1.46338 0.17224,-0.62099 1.4687,-1.312 1.4687,-1.312 1.503691,1.69602 3.00737,3.43746 4.51105,4.08737 z"
       style="fill:#ffffff;fill-opacity:1;stroke:#000000;stroke-width:0.38800001;stroke-linecap:butt;stroke-linejoin:miter;stroke-miterlimit:4;stroke-dasharray:none;stroke-opacity:1" />
    <path
       style="fill:none;stroke:#000000;stroke-width:0.465;stroke-linecap:butt;stroke-linejoin:miter;stroke-miterlimit:4;stroke-dasharray:11.16, 0.465;stroke-dashoffset:0;stroke-opacity:1"
       d="m 126.51223,37.601451 -9.98578,9.474178"
       id="path1548"
       inkscape:connector-curvature="0" />
    <path
       sodipodi:nodetypes="ccsscsssc"
       inkscape:connector-curvature="0"
       id="path1592"
       d="m 114.08462,242.05248 c 3.51574,0.56503 4.62747,-1.95065 5.87878,-3.29376 0.85075,-0.38581 -23.140169,-32.85558 -30.577489,-46.62518 -1.765157,-3.26804 3.12281,-3.80021 3.0608,-7.53846 -0.15707,-9.46681 -16.70062,-29.12959 -16.70062,-29.12959 0,0 -19.475636,9.55329 -17.169344,16.07689 2.394702,6.77366 11.36346,22.63484 17.116632,23.91782 2.42535,0.54086 6.287438,-2.99559 8.569948,-0.019 10.770164,14.04503 29.109083,47.63891 29.821293,46.61133 z"
       style="fill:#ffffff;fill-opacity:1;stroke:#000000;stroke-width:0.32699999;stroke-linecap:butt;stroke-linejoin:miter;stroke-miterlimit:4;stroke-dasharray:none;stroke-opacity:1"
       clip-path="url(#clipPath1600)"
       transform="translate(11.49259,-135.50565)" />
    <path
       style="fill:none;stroke:#000000;stroke-width:0.32699999;stroke-linecap:butt;stroke-linejoin:miter;stroke-miterlimit:4;stroke-dasharray:none;stroke-opacity:1"
       d="m 91.998627,53.288011 c 0,0 -10.627289,-13.185405 -10.037842,-15.087551 0.290515,-0.93749 3.115576,-3.506339 4.914429,-2.879121 1.763847,0.615004 9.8243,15.541411 9.8243,15.541411"
       id="path1557"
       inkscape:connector-curvature="0"
       sodipodi:nodetypes="cssc" />
    <path
       style="fill:none;stroke:#000000;stroke-width:0.308;stroke-linecap:butt;stroke-linejoin:miter;stroke-miterlimit:4;stroke-dasharray:none;stroke-opacity:1"
       d="m 99.986674,65.683348 4.618736,-2.964974"
       id="path1559"
       inkscape:connector-curvature="0" />
    <ellipse
       style="opacity:1;fill:#000000;fill-opacity:1;fill-rule:nonzero;stroke:#000000;stroke-width:0.24427466;stroke-miterlimit:4;stroke-dasharray:none;stroke-dashoffset:0;stroke-opacity:1"
       id="path1561"
       cx="44.469662"
       cy="155.96556"
       transform="matrix(0.82690456,-0.56234229,0.57775004,0.81621376,0,0)"
       rx="1.7112317"
       ry="1.6354786" />
  </g>
</svg>
