<?xml version="1.0" encoding="UTF-8" standalone="no"?>
<!-- Created with Inkscape (http://www.inkscape.org/) -->

<svg
   class="camping"
   xmlns:dc="http://purl.org/dc/elements/1.1/"
   xmlns:cc="http://creativecommons.org/ns#"
   xmlns:rdf="http://www.w3.org/1999/02/22-rdf-syntax-ns#"
   xmlns:svg="http://www.w3.org/2000/svg"
   xmlns="http://www.w3.org/2000/svg"
   xmlns:sodipodi="http://sodipodi.sourceforge.net/DTD/sodipodi-0.dtd"
   xmlns:inkscape="http://www.inkscape.org/namespaces/inkscape"
   width="186.59346mm"
   height="115.92255mm"
   viewBox="0 0 186.59346 115.92255"
   version="1.1"
   id="svg920"
   inkscape:version="0.92.2 5c3e80d, 2017-08-06"
   sodipodi:docname="camping.svg">
  <defs
     id="defs914" />
  <sodipodi:namedview
     id="base"
     pagecolor="#ffffff"
     bordercolor="#666666"
     borderopacity="1.0"
     inkscape:pageopacity="0.0"
     inkscape:pageshadow="2"
     inkscape:zoom="0.98994949"
     inkscape:cx="137.60659"
     inkscape:cy="38.753162"
     inkscape:document-units="mm"
     inkscape:current-layer="layer1"
     showgrid="false"
     inkscape:pagecheckerboard="true"
     inkscape:snap-nodes="false"
     inkscape:window-width="1821"
     inkscape:window-height="1163"
     inkscape:window-x="3"
     inkscape:window-y="0"
     inkscape:window-maximized="0"
     fit-margin-top="0"
     fit-margin-left="0"
     fit-margin-right="0"
     fit-margin-bottom="0" />
  <metadata
     id="metadata917">
    <rdf:RDF>
      <cc:Work
         rdf:about="">
        <dc:format>image/svg+xml</dc:format>
        <dc:type
           rdf:resource="http://purl.org/dc/dcmitype/StillImage" />
        <dc:title></dc:title>
      </cc:Work>
    </rdf:RDF>
  </metadata>
  <g
     inkscape:label="Layer 1"
     inkscape:groupmode="layer"
     id="layer1"
     transform="translate(-6.9014103,-106.36183)">
    <path
       style="fill:#ffffff;fill-opacity:1;stroke:#000000;stroke-width:0.465;stroke-linecap:butt;stroke-linejoin:miter;stroke-miterlimit:4;stroke-dasharray:none;stroke-opacity:1"
       d="m 22.584275,178.5996 c 18.179691,-17.15613 27.303751,-43.78112 34.878673,-71.89551 37.968083,20.17854 60.305622,21.28781 80.715402,20.04522 -0.86668,5.07494 16.89782,60.414 28.06329,64.14468 -17.79084,1.01214 -45.63855,4.9793 -64.41195,17.10526 2.21262,-8.39439 -72.644828,-27.55071 -79.245415,-29.39965 z"
       id="path1498"
       inkscape:connector-curvature="0"
       sodipodi:nodetypes="cccccc" />
    <path
       style="fill:none;stroke:#000000;stroke-width:0.465;stroke-linecap:butt;stroke-linejoin:miter;stroke-miterlimit:4;stroke-dasharray:none;stroke-opacity:1"
       d="m 101.82969,207.99925 c 1.37463,-11.05841 22.94246,-52.532 36.34866,-81.24994"
       id="path1500"
       inkscape:connector-curvature="0"
       sodipodi:nodetypes="cc" />
    <path
       style="fill:#ffffff;fill-opacity:1;stroke:#000000;stroke-width:0.465;stroke-linecap:butt;stroke-linejoin:miter;stroke-miterlimit:4;stroke-dasharray:none;stroke-opacity:1"
       d="m 55.191156,163.49887 c 4.767547,-7.67193 8.808788,-15.32065 12.160764,-24.05426 -2.235789,-7.80485 0.900013,-11.04384 5.746295,-12.82893 13.096028,6.42697 23.941697,9.1072 34.611405,10.0226 4.87054,4.64094 0.10108,12.77997 -3.47451,13.09621 -1.80319,10.42456 -8.186445,26.09588 -9.755334,26.05878 -16.672499,-0.39425 -41.66978,-8.46264 -39.28862,-12.2944 z"
       id="path1502"
       inkscape:connector-curvature="0"
       sodipodi:nodetypes="sccccss" />
    <path
       style="fill:#ffffff;fill-opacity:1;stroke:#000000;stroke-width:0.465;stroke-linecap:butt;stroke-linejoin:miter;stroke-miterlimit:4;stroke-dasharray:none;stroke-opacity:1"
       d="m 68.955538,139.97915 -11.225321,23.11881 c 10.014952,6.22089 22.448881,8.51094 35.279578,10.15625 6.009564,-6.81715 6.572613,-15.52044 9.621705,-23.65336 -30.34811,-10.6096 -24.557245,-7.15111 -33.675962,-9.6217 z"
       id="path1506"
       inkscape:connector-curvature="0"
       sodipodi:nodetypes="ccccc" />
    <path
       style="fill:#ffffff;fill-opacity:1;stroke:#000000;stroke-width:0.465;stroke-linecap:butt;stroke-linejoin:miter;stroke-miterlimit:4;stroke-dasharray:none;stroke-opacity:1"
       d="m 82.185379,142.78548 c 0.636031,-3.87315 0.446019,-7.89649 4.81085,-11.09168 2.83782,0.061 2.574699,1.00799 3.073601,1.73725 -3.604332,2.70094 -3.232043,6.59163 -3.340869,10.69078 z"
       id="path1508"
       inkscape:connector-curvature="0"
       sodipodi:nodetypes="ccccc" />
    <path
       sodipodi:type="spiral"
       style="fill:none;fill-opacity:1;fill-rule:evenodd;stroke:#000000;stroke-width:0.5161705;stroke-miterlimit:4;stroke-dasharray:none;stroke-opacity:1"
       id="path1512"
       sodipodi:cx="103.56694"
       sodipodi:cy="143.5873"
       sodipodi:expansion="1"
       sodipodi:revolution="3"
       sodipodi:radius="6.8061957"
       sodipodi:argument="-18.036386"
       sodipodi:t0="0"
       d="m 103.56694,143.5873 c 0.23451,0.2479 -0.21848,0.43842 -0.41204,0.38976 -0.52454,-0.13185 -0.59061,-0.81025 -0.3675,-1.21385 0.39911,-0.72194 1.38503,-0.78043 2.01566,-0.34522 0.92548,0.63869 0.97614,1.9677 0.32295,2.81747 -0.87059,1.13261 -2.55317,1.17436 -3.61927,0.30067 -1.34158,-1.09944 -1.37389,-3.13999 -0.27841,-4.42108 1.32679,-1.55156 3.72758,-1.57418 5.2229,-0.25613 1.76217,1.55328 1.77494,4.31563 0.23385,6.0247 -1.77924,1.97319 -4.904,1.97602 -6.826507,0.21159 -2.184476,-2.00487 -2.177325,-5.49259 -0.189311,-7.62832 2.230248,-2.39597 6.081338,-2.37879 8.430128,-0.16704 2.6076,2.45546 2.58037,6.67021 0.14476,9.23193"
       transform="matrix(-0.14980109,-0.73088387,0.5461676,-0.52153016,41.935994,293.13512)" />
    <path
       style="fill:#ffffff;fill-opacity:1;stroke:#000000;stroke-width:0.465;stroke-linecap:butt;stroke-linejoin:miter;stroke-miterlimit:4;stroke-dasharray:none;stroke-opacity:1"
       d="m 133.36749,147.19543 -0.26727,-1.87089 2.80633,-0.66817 0.66818,1.60361 z"
       id="path1514"
       inkscape:connector-curvature="0" />
    <path
       style="fill:none;stroke:#000000;stroke-width:0.465;stroke-linecap:butt;stroke-linejoin:miter;stroke-miterlimit:4;stroke-dasharray:none;stroke-opacity:1"
       d="m 135.50516,146.66969 -1.33537,48.62545"
       id="path1516"
       inkscape:connector-curvature="0" />
    <path
       style="fill:none;stroke:#000000;stroke-width:0.465;stroke-linecap:butt;stroke-linejoin:miter;stroke-miterlimit:4;stroke-dasharray:none;stroke-opacity:1"
       d="m 133.63476,150.13539 2.80633,-0.40091"
       id="path1518"
       inkscape:connector-curvature="0" />
    <path
       inkscape:connector-curvature="0"
       id="path1520"
       d="m 133.36749,152.13991 2.80633,-0.40091"
       style="fill:none;stroke:#000000;stroke-width:0.465;stroke-linecap:butt;stroke-linejoin:miter;stroke-miterlimit:4;stroke-dasharray:none;stroke-opacity:1" />
    <path
       style="fill:none;stroke:#000000;stroke-width:0.465;stroke-linecap:butt;stroke-linejoin:miter;stroke-miterlimit:4;stroke-dasharray:none;stroke-opacity:1"
       d="m 133.63476,154.4117 2.80633,-0.40091"
       id="path1522"
       inkscape:connector-curvature="0" />
    <path
       inkscape:connector-curvature="0"
       id="path1524"
       d="m 133.76839,157.35166 2.80633,-0.40091"
       style="fill:none;stroke:#000000;stroke-width:0.465;stroke-linecap:butt;stroke-linejoin:miter;stroke-miterlimit:4;stroke-dasharray:none;stroke-opacity:1" />
    <path
       style="fill:none;stroke:#000000;stroke-width:0.465;stroke-linecap:butt;stroke-linejoin:miter;stroke-miterlimit:4;stroke-dasharray:none;stroke-opacity:1"
       d="m 133.63476,160.15799 2.80633,-0.40091"
       id="path1526"
       inkscape:connector-curvature="0" />
    <path
       inkscape:connector-curvature="0"
       id="path1528"
       d="m 133.50113,162.42978 2.80633,-0.40091"
       style="fill:none;stroke:#000000;stroke-width:0.465;stroke-linecap:butt;stroke-linejoin:miter;stroke-miterlimit:4;stroke-dasharray:none;stroke-opacity:1" />
    <path
       style="fill:none;stroke:#000000;stroke-width:0.465;stroke-linecap:butt;stroke-linejoin:miter;stroke-miterlimit:4;stroke-dasharray:none;stroke-opacity:1"
       d="m 133.23386,165.10248 2.80633,-0.40091"
       id="path1530"
       inkscape:connector-curvature="0" />
    <path
       inkscape:connector-curvature="0"
       id="path1532"
       d="m 133.23386,167.77518 2.80633,-0.40091"
       style="fill:none;stroke:#000000;stroke-width:0.465;stroke-linecap:butt;stroke-linejoin:miter;stroke-miterlimit:4;stroke-dasharray:none;stroke-opacity:1" />
    <path
       style="fill:none;stroke:#000000;stroke-width:0.465;stroke-linecap:butt;stroke-linejoin:miter;stroke-miterlimit:4;stroke-dasharray:none;stroke-opacity:1"
       d="m 133.50113,170.31424 2.80633,-0.40091"
       id="path1534"
       inkscape:connector-curvature="0" />
    <path
       inkscape:connector-curvature="0"
       id="path1536"
       d="m 133.63476,173.12057 2.80633,-0.40091"
       style="fill:none;stroke:#000000;stroke-width:0.465;stroke-linecap:butt;stroke-linejoin:miter;stroke-miterlimit:4;stroke-dasharray:none;stroke-opacity:1" />
    <path
       style="fill:none;stroke:#000000;stroke-width:0.465;stroke-linecap:butt;stroke-linejoin:miter;stroke-miterlimit:4;stroke-dasharray:none;stroke-opacity:1"
       d="m 133.10022,175.65963 2.80633,-0.40091"
       id="path1538"
       inkscape:connector-curvature="0" />
    <path
       inkscape:connector-curvature="0"
       id="path1540"
       d="m 133.23385,178.73323 2.80633,-0.40091"
       style="fill:none;stroke:#000000;stroke-width:0.465;stroke-linecap:butt;stroke-linejoin:miter;stroke-miterlimit:4;stroke-dasharray:none;stroke-opacity:1" />
    <path
       style="fill:none;stroke:#000000;stroke-width:0.465;stroke-linecap:butt;stroke-linejoin:miter;stroke-miterlimit:4;stroke-dasharray:none;stroke-opacity:1"
       d="m 132.96658,181.94046 2.80633,-0.40091"
       id="path1542"
       inkscape:connector-curvature="0" />
    <path
       inkscape:connector-curvature="0"
       id="path1544"
       d="m 132.69931,184.61316 2.80633,-0.40091"
       style="fill:none;stroke:#000000;stroke-width:0.465;stroke-linecap:butt;stroke-linejoin:miter;stroke-miterlimit:4;stroke-dasharray:none;stroke-opacity:1" />
    <path
       style="fill:none;stroke:#000000;stroke-width:0.465;stroke-linecap:butt;stroke-linejoin:miter;stroke-miterlimit:4;stroke-dasharray:none;stroke-opacity:1"
       d="m 132.83294,187.68676 2.80633,-0.40091"
       id="path1546"
       inkscape:connector-curvature="0" />
    <path
       inkscape:connector-curvature="0"
       id="path1548"
       d="m 133.10021,190.89399 2.80633,-0.40091"
       style="fill:none;stroke:#000000;stroke-width:0.465;stroke-linecap:butt;stroke-linejoin:miter;stroke-miterlimit:4;stroke-dasharray:none;stroke-opacity:1" />
    <path
       style="fill:none;stroke:#000000;stroke-width:0.465;stroke-linecap:butt;stroke-linejoin:miter;stroke-miterlimit:4;stroke-dasharray:none;stroke-opacity:1"
       d="m 132.83294,193.16578 2.80633,-0.40091"
       id="path1550"
       inkscape:connector-curvature="0" />
    <path
       style="fill:#ffffff;fill-opacity:1;stroke:#000000;stroke-width:0.465;stroke-linecap:butt;stroke-linejoin:miter;stroke-miterlimit:4;stroke-dasharray:none;stroke-opacity:1"
       d="m 11.717262,185.30803 c 0.04284,-0.0143 -4.7320722,-4.501 -4.5796037,-6.92574 0.02296,-0.36514 2.8025453,-2.20113 3.4456747,-2.14569 1.755823,0.15135 3.96875,7.37054 3.96875,7.37054 0.07655,2.01407 -0.774072,2.71466 -2.834821,1.70089 z"
       id="path1552"
       inkscape:connector-curvature="0"
       sodipodi:nodetypes="csscc" />
    <path
       style="fill:none;stroke:#000000;stroke-width:0.465;stroke-linecap:butt;stroke-linejoin:miter;stroke-miterlimit:4;stroke-dasharray:none;stroke-opacity:1"
       d="m 10.156242,183.74453 c 1.444814,-0.38153 3.136092,-0.51659 3.741773,-1.73725 3.101558,-0.86294 6.449544,-1.6799 8.68626,-3.40768"
       id="path1554"
       inkscape:connector-curvature="0"
       sodipodi:nodetypes="ccc" />
    <path
       style="fill:#ffffff;fill-opacity:1;stroke:#000000;stroke-width:0.465;stroke-linecap:butt;stroke-linejoin:miter;stroke-miterlimit:4;stroke-dasharray:none;stroke-opacity:1"
       d="m 93.832589,214.60119 c 1.595118,-2.17527 3.002088,-2.28091 4.346726,-1.7009 1.311526,1.68481 0.876203,4.7671 1.039434,7.37054 -1.029633,1.93471 -2.214994,2.1564 -3.496281,1.32292 z"
       id="path1556"
       inkscape:connector-curvature="0"
       sodipodi:nodetypes="ccccc" />
    <path
       style="fill:none;stroke:#000000;stroke-width:0.465;stroke-linecap:butt;stroke-linejoin:miter;stroke-miterlimit:4;stroke-dasharray:none;stroke-opacity:1"
       d="m 93.738093,214.69568 c 1.655674,0.52299 3.280284,0.87514 4.441222,-1.32291"
       id="path1558"
       inkscape:connector-curvature="0"
       sodipodi:nodetypes="cc" />
    <path
       style="fill:none;stroke:#000000;stroke-width:0.465;stroke-linecap:butt;stroke-linejoin:miter;stroke-miterlimit:4;stroke-dasharray:none;stroke-opacity:1"
       d="m 94.210565,219.42038 c 2.380457,0.67515 3.783669,-0.40874 4.91369,-1.98437 0.658399,-3.21203 1.120905,-6.37509 2.740325,-9.82738"
       id="path1560"
       inkscape:connector-curvature="0"
       sodipodi:nodetypes="ccc" />
    <path
       style="fill:#ffffff;fill-opacity:1;stroke:#000000;stroke-width:0.465;stroke-linecap:butt;stroke-linejoin:miter;stroke-miterlimit:4;stroke-dasharray:none;stroke-opacity:1"
       d="m 175.85342,189.65476 c 1.84361,-1.58814 3.28617,-0.97051 4.63021,0.18899 l -1.32292,6.42559 c -0.27787,1.34967 -2.78573,2.77337 -2.92931,0.18899 z"
       id="path1581"
       inkscape:connector-curvature="0"
       sodipodi:nodetypes="ccssc" />
    <path
       style="fill:none;stroke:#000000;stroke-width:0.465;stroke-linecap:butt;stroke-linejoin:miter;stroke-miterlimit:4;stroke-dasharray:none;stroke-opacity:1"
       d="m 165.83705,190.78869 c 3.38333,1.28601 7.41411,3.86692 10.11086,3.77976 2.29558,1.09404 2.4818,0.43027 3.40179,0.37798"
       id="path1583"
       inkscape:connector-curvature="0"
       sodipodi:nodetypes="ccc" />
    <path
       style="fill:#ffffff;fill-opacity:1;stroke:#000000;stroke-width:0.465;stroke-linecap:butt;stroke-linejoin:miter;stroke-miterlimit:4;stroke-dasharray:none;stroke-opacity:1"
       d="m 164.37076,179.93594 c 0.11619,-0.17538 7.61179,-8.24327 9.88897,-10.15624 1.27344,-1.06977 4.07482,0.18704 4.67722,1.73725 0.60338,1.55274 -9.71214,11.13256 -9.75534,11.75986 -0.16011,2.32501 -6.10808,-1.38275 -4.81085,-3.34087 z"
       id="path1585"
       inkscape:connector-curvature="0"
       sodipodi:nodetypes="sssss" />
    <path
       sodipodi:nodetypes="sssss"
       inkscape:connector-curvature="0"
       id="path1587"
       d="m 190.34572,182.35099 c -0.18424,-0.069 -9.11166,-5.20121 -11.33359,-6.87358 -1.24254,-0.93522 -0.68673,-3.75194 0.59898,-4.62689 1.2878,-0.87636 12.18592,6.5071 12.76655,6.41451 2.15202,-0.3432 0.0249,5.85599 -2.03194,5.08596 z"
       style="fill:#ffffff;fill-opacity:1;stroke:#000000;stroke-width:0.43481046;stroke-linecap:butt;stroke-linejoin:miter;stroke-miterlimit:4;stroke-dasharray:none;stroke-opacity:1" />
    <path
       style="fill:#ffffff;fill-opacity:1;stroke:#000000;stroke-width:0.465;stroke-linecap:butt;stroke-linejoin:miter;stroke-miterlimit:4;stroke-dasharray:none;stroke-opacity:1"
       d="m 178.0015,173.38784 -4.94448,5.81311 c 0,0 -0.32776,3.58656 1.00226,3.94223 1.84852,0.49431 5.49751,-0.10369 6.61492,-1.06908 0.92224,-0.79677 -1.60362,-6.5481 -1.60362,-6.5481 -0.7212,-0.22626 -0.86245,-1.2258 -1.06908,-2.13816 z"
       id="path1591"
       inkscape:connector-curvature="0"
       sodipodi:nodetypes="ccsscc" />
    <path
       style="fill:none;stroke:#000000;stroke-width:0.465;stroke-linecap:butt;stroke-linejoin:miter;stroke-miterlimit:4;stroke-dasharray:none;stroke-opacity:1"
       d="m 164.23712,180.20321 c 3.26928,-0.70794 4.18525,0.93743 5.01131,2.6727"
       id="path1593"
       inkscape:connector-curvature="0"
       sodipodi:nodetypes="cc" />
    <path
       style="fill:none;stroke:#000000;stroke-width:0.465;stroke-linecap:butt;stroke-linejoin:miter;stroke-miterlimit:4;stroke-dasharray:none;stroke-opacity:1"
       d="m 173.65837,182.94273 c 0.28507,-2.66223 3.33276,-2.98904 6.61492,-3.00679"
       id="path1595"
       inkscape:connector-curvature="0"
       sodipodi:nodetypes="cc" />
    <path
       style="fill:none;stroke:#000000;stroke-width:0.465;stroke-linecap:butt;stroke-linejoin:miter;stroke-miterlimit:4;stroke-dasharray:none;stroke-opacity:1"
       d="m 189.69455,182.14092 c -0.33397,-2.80622 1.0666,-3.87789 2.47224,-4.94449"
       id="path1597"
       inkscape:connector-curvature="0"
       sodipodi:nodetypes="cc" />
    <path
       style="fill:none;stroke:#000000;stroke-width:0.46500003;stroke-linecap:butt;stroke-linejoin:miter;stroke-miterlimit:4;stroke-dasharray:3.72000014, 0.46500002;stroke-dashoffset:0;stroke-opacity:1"
       d="m 171.0577,174.93479 3.73282,-4.19994"
       id="path1599"
       inkscape:connector-curvature="0" />
    <path
       style="fill:#ffffff;fill-opacity:1;stroke:#000000;stroke-width:0.465;stroke-linecap:butt;stroke-linejoin:miter;stroke-miterlimit:4;stroke-dasharray:none;stroke-opacity:1"
       d="m 169.71615,173.85556 c -7.46926,-3.95844 -6.66758,-11.17101 -3.34087,-19.37704 0.20411,3.18284 0.77649,5.70278 1.87089,7.2831 -0.0885,-3.76567 1.55954,-7.21522 3.67495,-10.69079 1.51095,-2.48246 2.34045,-5.4696 1.5368,-9.02034 6.31961,2.82111 7.50219,7.46514 7.81763,11.75986 0.18469,2.51462 -0.39547,5.26192 -0.73498,7.95127 3.7051,-1.44791 3.93189,-7.18822 4.34312,-9.82216 6.02676,9.34678 5.95546,16.28868 -0.66817,20.64657 -1.92876,-0.99438 -3.96641,-2.28816 -5.21176,-1.40316 -0.71753,-1.22635 -2.00109,-1.95741 -4.14267,-1.93771 -1.38863,1.10166 -3.22816,2.80454 -5.14494,4.6104 z"
       id="path1601"
       inkscape:connector-curvature="0"
       sodipodi:nodetypes="cccscscccccc" />
    <path
       style="fill:#ffffff;fill-opacity:1;stroke:#000000;stroke-width:0.465;stroke-linecap:butt;stroke-linejoin:miter;stroke-miterlimit:4;stroke-dasharray:none;stroke-opacity:1"
       d="m 170.65159,173.12057 c -2.77718,-2.27837 -1.95547,-6.39593 -0.53454,-10.42351 0.18045,1.61961 0.2337,3.341 1.26953,4.27631 -0.009,-1.62304 -0.17609,-4.04283 1.60362,-5.41221 1.62292,-1.24874 1.36945,-3.43568 1.26953,-5.54584 5.58945,2.16714 4.88401,6.67239 4.40995,11.09169 1.25592,-0.9507 2.27748,-2.292 2.47224,-5.01131 3.53279,3.76247 2.80852,6.73659 1.60362,9.62171 -1.15817,-0.28601 -2.31634,-1.32977 -3.4745,-0.66818 -1.08865,-1.30895 -2.63121,-1.74188 -4.61041,-1.80406 z"
       id="path1603"
       inkscape:connector-curvature="0"
       sodipodi:nodetypes="cccsccccccc" />
    <path
       style="fill:none;stroke:#000000;stroke-width:0.465;stroke-linecap:butt;stroke-linejoin:miter;stroke-miterlimit:4;stroke-dasharray:none;stroke-opacity:1"
       d="m 67.218287,139.31098 c 13.62024,2.73245 25.235123,6.66812 37.150463,10.42351"
       id="path1605"
       inkscape:connector-curvature="0"
       sodipodi:nodetypes="cc" />
    <path
       style="fill:none;stroke:#000000;stroke-width:0.26458332px;stroke-linecap:butt;stroke-linejoin:miter;stroke-opacity:1"
       d="M 69.757347,140.11279 58.665661,163.6325"
       id="path1607"
       inkscape:connector-curvature="0" />
    <path
       inkscape:connector-curvature="0"
       id="path1609"
       d="M 70.69279,140.51369 59.601104,164.0334"
       style="fill:none;stroke:#000000;stroke-width:0.26458332px;stroke-linecap:butt;stroke-linejoin:miter;stroke-opacity:1" />
    <path
       style="fill:none;stroke:#000000;stroke-width:0.26770374px;stroke-linecap:butt;stroke-linejoin:miter;stroke-opacity:1"
       d="M 71.760457,140.78163 60.537958,164.57872"
       id="path1611"
       inkscape:connector-curvature="0" />
    <path
       inkscape:connector-curvature="0"
       id="path1613"
       d="M 72.960521,140.9165 61.492515,165.23419"
       style="fill:none;stroke:#000000;stroke-width:0.27356014px;stroke-linecap:butt;stroke-linejoin:miter;stroke-opacity:1" />
    <path
       style="fill:none;stroke:#000000;stroke-width:0.26458332px;stroke-linecap:butt;stroke-linejoin:miter;stroke-opacity:1"
       d="M 74.167293,140.78096 62.407434,165.50339"
       id="path1615"
       inkscape:connector-curvature="0" />
    <path
       style="fill:none;stroke:#000000;stroke-width:0.27804855px;stroke-linecap:butt;stroke-linejoin:miter;stroke-opacity:1"
       d="M 75.085672,141.18474 63.429505,165.90141"
       id="path1617"
       inkscape:connector-curvature="0" />
    <path
       style="fill:none;stroke:#000000;stroke-width:0.28253695px;stroke-linecap:butt;stroke-linejoin:miter;stroke-opacity:1"
       d="M 76.430965,141.31931 64.586639,166.43498"
       id="path1619"
       inkscape:connector-curvature="0" />
    <path
       inkscape:connector-curvature="0"
       id="path1621"
       d="M 77.770932,141.58491 65.568142,167.2385"
       style="fill:none;stroke:#000000;stroke-width:0.27454877px;stroke-linecap:butt;stroke-linejoin:miter;stroke-opacity:1" />
    <path
       inkscape:connector-curvature="0"
       id="path1623"
       d="M 79.007717,142.00741 66.984686,167.50202"
       style="fill:none;stroke:#000000;stroke-width:0.28679982px;stroke-linecap:butt;stroke-linejoin:miter;stroke-opacity:1" />
    <path
       style="fill:none;stroke:#000000;stroke-width:0.28679982px;stroke-linecap:butt;stroke-linejoin:miter;stroke-opacity:1"
       d="M 79.94316,142.40831 67.920129,167.90292"
       id="path1625"
       inkscape:connector-curvature="0" />
    <path
       inkscape:connector-curvature="0"
       id="path1627"
       d="M 81.012741,142.67535 69.036296,168.07116"
       style="fill:none;stroke:#000000;stroke-width:0.28568852px;stroke-linecap:butt;stroke-linejoin:miter;stroke-opacity:1" />
    <path
       style="fill:none;stroke:#000000;stroke-width:0.28837112px;stroke-linecap:butt;stroke-linejoin:miter;stroke-opacity:1"
       d="M 82.21424,142.80954 70.125338,168.44383"
       id="path1629"
       inkscape:connector-curvature="0" />
    <path
       inkscape:connector-curvature="0"
       id="path1631"
       d="M 83.139683,143.05098 70.932395,168.71403"
       style="fill:none;stroke:#000000;stroke-width:0.27464995px;stroke-linecap:butt;stroke-linejoin:miter;stroke-opacity:1" />
    <path
       inkscape:connector-curvature="0"
       id="path1633"
       d="M 84.059258,143.64316 72.092643,169.01813"
       style="fill:none;stroke:#000000;stroke-width:0.28545403px;stroke-linecap:butt;stroke-linejoin:miter;stroke-opacity:1" />
    <path
       inkscape:connector-curvature="0"
       id="path1635"
       d="M 85.398225,143.87155 C 81.580651,152.59643 78.03016,161.64181 73.3765,169.36339"
       style="fill:none;stroke:#000000;stroke-width:0.28676867px;stroke-linecap:butt;stroke-linejoin:miter;stroke-opacity:1"
       sodipodi:nodetypes="cc" />
    <path
       style="fill:none;stroke:#000000;stroke-width:0.27454877px;stroke-linecap:butt;stroke-linejoin:miter;stroke-opacity:1"
       d="m 86.747867,144.13625 c -3.907145,8.71165 -7.4712,17.76639 -12.20279,25.65359"
       id="path1637"
       inkscape:connector-curvature="0"
       sodipodi:nodetypes="cc" />
    <path
       inkscape:connector-curvature="0"
       id="path1639"
       d="m 88.217849,144.60397 c -3.861474,8.83977 -7.498935,17.99316 -12.20279,25.65359"
       style="fill:none;stroke:#000000;stroke-width:0.27454877px;stroke-linecap:butt;stroke-linejoin:miter;stroke-opacity:1"
       sodipodi:nodetypes="cc" />
    <path
       style="fill:none;stroke:#000000;stroke-width:0.27454877px;stroke-linecap:butt;stroke-linejoin:miter;stroke-opacity:1"
       d="m 89.554197,145.00487 c -3.839287,8.77951 -7.359924,17.87766 -12.20279,25.65359"
       id="path1641"
       inkscape:connector-curvature="0"
       sodipodi:nodetypes="cc" />
    <path
       inkscape:connector-curvature="0"
       id="path1643"
       d="m 91.157814,145.40577 c -3.827564,8.74322 -7.520747,17.59395 -12.20279,25.65359"
       style="fill:none;stroke:#000000;stroke-width:0.27454877px;stroke-linecap:butt;stroke-linejoin:miter;stroke-opacity:1"
       sodipodi:nodetypes="cc" />
    <path
       style="fill:none;stroke:#000000;stroke-width:0.26865524px;stroke-linecap:butt;stroke-linejoin:miter;stroke-opacity:1"
       d="m 92.363188,146.00586 c -3.673988,8.85771 -7.39312,17.64318 -11.940843,25.10291"
       id="path1645"
       inkscape:connector-curvature="0"
       sodipodi:nodetypes="cc" />
    <path
       inkscape:connector-curvature="0"
       id="path1647"
       d="m 93.699536,146.47358 c -3.503322,8.92409 -7.370951,17.42315 -11.940843,25.10291"
       style="fill:none;stroke:#000000;stroke-width:0.26865524px;stroke-linecap:butt;stroke-linejoin:miter;stroke-opacity:1"
       sodipodi:nodetypes="cc" />
    <path
       style="fill:none;stroke:#000000;stroke-width:0.26865524px;stroke-linecap:butt;stroke-linejoin:miter;stroke-opacity:1"
       d="m 95.236336,146.74085 c -3.45666,8.60036 -6.918472,17.19842 -11.940843,25.10291"
       id="path1649"
       inkscape:connector-curvature="0"
       sodipodi:nodetypes="cc" />
    <path
       inkscape:connector-curvature="0"
       id="path1651"
       d="m 96.775132,147.34126 c -3.443458,8.58347 -6.907636,17.1514 -11.744383,24.6899"
       style="fill:none;stroke:#000000;stroke-width:0.26423511px;stroke-linecap:butt;stroke-linejoin:miter;stroke-opacity:1"
       sodipodi:nodetypes="cc" />
    <path
       style="fill:none;stroke:#000000;stroke-width:0.26128834px;stroke-linecap:butt;stroke-linejoin:miter;stroke-opacity:1"
       d="m 98.313263,147.87517 c -3.544435,8.30153 -7.031411,16.6318 -11.61341,24.41455"
       id="path1653"
       inkscape:connector-curvature="0"
       sodipodi:nodetypes="cc" />
    <path
       inkscape:connector-curvature="0"
       id="path1655"
       d="m 99.449158,148.34289 c -3.331241,8.76806 -7.213113,16.89372 -11.61341,24.41455"
       style="fill:none;stroke:#000000;stroke-width:0.26128834px;stroke-linecap:butt;stroke-linejoin:miter;stroke-opacity:1"
       sodipodi:nodetypes="cc" />
    <path
       style="fill:none;stroke:#000000;stroke-width:0.25834158px;stroke-linecap:butt;stroke-linejoin:miter;stroke-opacity:1"
       d="m 100.92047,148.60952 c -2.993433,8.60243 -6.885931,16.60548 -11.482436,24.1392"
       id="path1657"
       inkscape:connector-curvature="0"
       sodipodi:nodetypes="cc" />
    <path
       inkscape:connector-curvature="0"
       id="path1659"
       d="m 102.19133,149.07661 c -3.326867,8.46869 -6.635135,16.9583 -11.351462,23.86385"
       style="fill:none;stroke:#000000;stroke-width:0.25539482px;stroke-linecap:butt;stroke-linejoin:miter;stroke-opacity:1"
       sodipodi:nodetypes="cc" />
    <path
       style="fill:none;stroke:#000000;stroke-width:0.26458332px;stroke-linecap:butt;stroke-linejoin:miter;stroke-opacity:1"
       d="m 68.420998,140.78096 33.675962,9.75534"
       id="path1661"
       inkscape:connector-curvature="0" />
    <path
       style="fill:none;stroke:#000000;stroke-width:0.26458332px;stroke-linecap:butt;stroke-linejoin:miter;stroke-opacity:1"
       d="m 67.953275,141.78322 33.943235,9.55489"
       id="path1663"
       inkscape:connector-curvature="0" />
    <path
       style="fill:none;stroke:#000000;stroke-width:0.26458332px;stroke-linecap:butt;stroke-linejoin:miter;stroke-opacity:1"
       d="m 67.35192,142.8523 34.14368,9.55488"
       id="path1665"
       inkscape:connector-curvature="0" />
    <path
       inkscape:connector-curvature="0"
       id="path1667"
       d="m 67.19309,143.80655 34.1474,9.89191"
       style="fill:none;stroke:#000000;stroke-width:0.2682873px;stroke-linecap:butt;stroke-linejoin:miter;stroke-opacity:1" />
    <path
       inkscape:connector-curvature="0"
       id="path1669"
       d="m 66.72535,144.8088 34.41471,9.68761"
       style="fill:none;stroke:#000000;stroke-width:0.26825839px;stroke-linecap:butt;stroke-linejoin:miter;stroke-opacity:1" />
    <path
       inkscape:connector-curvature="0"
       id="path1671"
       d="m 66.124186,145.87857 34.803764,9.7396"
       style="fill:none;stroke:#000000;stroke-width:0.26969835px;stroke-linecap:butt;stroke-linejoin:miter;stroke-opacity:1" />
    <path
       style="fill:none;stroke:#000000;stroke-width:0.26969835px;stroke-linecap:butt;stroke-linejoin:miter;stroke-opacity:1"
       d="m 65.651716,147.10699 34.803764,9.7396"
       id="path1673"
       inkscape:connector-curvature="0" />
    <path
       inkscape:connector-curvature="0"
       id="path1675"
       d="m 65.084752,148.42991 34.803764,9.7396"
       style="fill:none;stroke:#000000;stroke-width:0.26969835px;stroke-linecap:butt;stroke-linejoin:miter;stroke-opacity:1" />
    <path
       style="fill:none;stroke:#000000;stroke-width:0.27176514px;stroke-linecap:butt;stroke-linejoin:miter;stroke-opacity:1"
       d="m 64.534279,149.58271 35.070477,9.81423"
       id="path1677"
       inkscape:connector-curvature="0" />
    <path
       inkscape:connector-curvature="0"
       id="path1679"
       d="m 63.762522,150.98371 35.461558,9.92368"
       style="fill:none;stroke:#000000;stroke-width:0.27479568px;stroke-linecap:butt;stroke-linejoin:miter;stroke-opacity:1" />
    <path
       style="fill:none;stroke:#000000;stroke-width:0.26458332px;stroke-linecap:butt;stroke-linejoin:miter;stroke-opacity:1"
       d="m 63.02753,151.76265 35.813243,10.11086"
       id="path1681"
       inkscape:connector-curvature="0" />
    <path
       style="fill:none;stroke:#000000;stroke-width:0.26120302px;stroke-linecap:butt;stroke-linejoin:miter;stroke-opacity:1"
       d="m 62.919783,152.8396 35.44898,10.07497"
       id="path1683"
       inkscape:connector-curvature="0" />
    <path
       style="fill:none;stroke:#000000;stroke-width:0.26117229px;stroke-linecap:butt;stroke-linejoin:miter;stroke-opacity:1"
       d="m 62.360637,154.068 35.724643,9.98051"
       id="path1685"
       inkscape:connector-curvature="0" />
    <path
       style="fill:none;stroke:#000000;stroke-width:0.2619442px;stroke-linecap:butt;stroke-linejoin:miter;stroke-opacity:1"
       d="M 61.783423,154.79502 97.7072,164.89859"
       id="path1687"
       inkscape:connector-curvature="0" />
    <path
       style="fill:none;stroke:#000000;stroke-width:0.26117235px;stroke-linecap:butt;stroke-linejoin:miter;stroke-opacity:1"
       d="m 61.419341,155.95788 36.004478,9.98051"
       id="path1689"
       inkscape:connector-curvature="0" />
    <path
       style="fill:none;stroke:#000000;stroke-width:0.26117238px;stroke-linecap:butt;stroke-linejoin:miter;stroke-opacity:1"
       d="m 60.854809,157.09181 36.191029,9.98051"
       id="path1691"
       inkscape:connector-curvature="0" />
    <path
       style="fill:none;stroke:#000000;stroke-width:0.26120314px;stroke-linecap:butt;stroke-linejoin:miter;stroke-opacity:1"
       d="m 60.283582,157.94228 36.195293,10.07497"
       id="path1693"
       inkscape:connector-curvature="0" />
    <path
       style="fill:none;stroke:#000000;stroke-width:0.26458332px;stroke-linecap:butt;stroke-linejoin:miter;stroke-opacity:1"
       d="m 59.531249,158.94419 36.191219,10.20536"
       id="path1695"
       inkscape:connector-curvature="0" />
    <path
       style="fill:none;stroke:#000000;stroke-width:0.26458332px;stroke-linecap:butt;stroke-linejoin:miter;stroke-opacity:1"
       d="m 59.05878,159.98363 36.191219,10.29985"
       id="path1697"
       inkscape:connector-curvature="0" />
    <path
       style="fill:none;stroke:#000000;stroke-width:0.26458332px;stroke-linecap:butt;stroke-linejoin:miter;stroke-opacity:1"
       d="m 58.491815,161.11756 35.813243,10.01637"
       id="path1699"
       inkscape:connector-curvature="0" />
    <path
       style="fill:none;stroke:#000000;stroke-width:0.26458332px;stroke-linecap:butt;stroke-linejoin:miter;stroke-opacity:1"
       d="m 58.208333,161.87351 35.52976,10.29985"
       id="path1701"
       inkscape:connector-curvature="0" />
    <path
       style="fill:none;stroke:#000000;stroke-width:0.26458332px;stroke-linecap:butt;stroke-linejoin:miter;stroke-opacity:1"
       d="m 57.830357,162.53497 c 11.812003,3.93799 23.398754,7.20022 34.962798,10.39434"
       id="path1703"
       inkscape:connector-curvature="0"
       sodipodi:nodetypes="cc" />
    <path
       style="fill:none;stroke:#000000;stroke-width:0.26458332px;stroke-linecap:butt;stroke-linejoin:miter;stroke-opacity:1"
       d="m 58.491815,163.47991 c 9.416425,3.52975 19.215274,6.54961 29.387649,9.07143"
       id="path1705"
       inkscape:connector-curvature="0"
       sodipodi:nodetypes="cc" />
    <path
       style="fill:none;stroke:#000000;stroke-width:0.565;stroke-linecap:butt;stroke-linejoin:miter;stroke-miterlimit:4;stroke-dasharray:6.78, 0.565;stroke-dashoffset:0;stroke-opacity:1"
       d="m 58.532027,108.57498 c -1.67342,9.03469 -2.635068,9.92537 -4.009044,13.49711"
       id="path1707"
       inkscape:connector-curvature="0"
       sodipodi:nodetypes="cc" />
  </g>
</svg>
