<?xml version="1.0" encoding="UTF-8" standalone="no"?>
<!-- Created with Inkscape (http://www.inkscape.org/) -->

<svg
   xmlns:dc="http://purl.org/dc/elements/1.1/"
   xmlns:cc="http://creativecommons.org/ns#"
   xmlns:rdf="http://www.w3.org/1999/02/22-rdf-syntax-ns#"
   xmlns:svg="http://www.w3.org/2000/svg"
   xmlns="http://www.w3.org/2000/svg"
   xmlns:sodipodi="http://sodipodi.sourceforge.net/DTD/sodipodi-0.dtd"
   xmlns:inkscape="http://www.inkscape.org/namespaces/inkscape"
   width="67.229828mm"
   height="45.852943mm"
   viewBox="0 0 67.229826 45.852945"
   version="1.1"
   id="svg8"
   inkscape:version="0.92.2 5c3e80d, 2017-08-06"
   sodipodi:docname="mailCar.svg">
  <defs
     id="defs2">
    <clipPath
       clipPathUnits="userSpaceOnUse"
       id="clipPath980">
      <rect
         style="opacity:1;fill:none;fill-opacity:1;fill-rule:nonzero;stroke:#000000;stroke-width:0.46499997;stroke-miterlimit:4;stroke-dasharray:none;stroke-dashoffset:0;stroke-opacity:1"
         id="rect982"
         width="190.02861"
         height="166.50891"
         x="20.045214"
         y="-27.465208" />
    </clipPath>
  </defs>
  <sodipodi:namedview
     id="base"
     pagecolor="#ffffff"
     bordercolor="#666666"
     borderopacity="1.0"
     inkscape:pageopacity="0.0"
     inkscape:pageshadow="2"
     inkscape:zoom="1.979899"
     inkscape:cx="87.458607"
     inkscape:cy="18.727922"
     inkscape:document-units="mm"
     inkscape:current-layer="layer1"
     showgrid="false"
     inkscape:pagecheckerboard="true"
     inkscape:snap-nodes="false"
     inkscape:window-width="1652"
     inkscape:window-height="1156"
     inkscape:window-x="7"
     inkscape:window-y="0"
     inkscape:window-maximized="0"
     fit-margin-top="0"
     fit-margin-left="0"
     fit-margin-right="0"
     fit-margin-bottom="0" />
  <metadata
     id="metadata5">
    <rdf:RDF>
      <cc:Work
         rdf:about="">
        <dc:format>image/svg+xml</dc:format>
        <dc:type
           rdf:resource="http://purl.org/dc/dcmitype/StillImage" />
        <dc:title></dc:title>
      </cc:Work>
    </rdf:RDF>
  </metadata>
  <g
     inkscape:label="Layer 1"
     inkscape:groupmode="layer"
     id="layer1"
     transform="translate(52.965256,-175.34048)">
    <g
       id="g1833"
       transform="translate(5.1026786,-58.964286)">
      <g
         transform="matrix(0.93927165,0,0,0.93927165,1.6214536,-0.02755495)"
         id="g1760">
        <ellipse
           style="opacity:1;fill:#000000;fill-opacity:0.99523806;fill-rule:nonzero;stroke:#000000;stroke-width:0.26969755;stroke-miterlimit:4;stroke-dasharray:none;stroke-dashoffset:0;stroke-opacity:1"
           id="path826"
           cx="-46.899086"
           cy="290.30405"
           rx="7.8706274"
           ry="7.861671" />
        <ellipse
           style="opacity:1;fill:#ffffff;fill-opacity:0.99523806;fill-rule:nonzero;stroke:#000000;stroke-width:0.27004543;stroke-miterlimit:4;stroke-dasharray:none;stroke-dashoffset:0;stroke-opacity:1"
           id="path828"
           cx="-46.612522"
           cy="290.37628"
           rx="5.5780039"
           ry="5.911696" />
        <ellipse
           style="opacity:1;fill:none;fill-opacity:1;fill-rule:nonzero;stroke:#000000;stroke-width:0.25027749;stroke-miterlimit:4;stroke-dasharray:none;stroke-dashoffset:0;stroke-opacity:1"
           id="path830"
           cx="-46.61253"
           cy="290.41238"
           rx="1.5760597"
           ry="1.6248343" />
        <ellipse
           style="opacity:1;fill:#000000;fill-opacity:0.99523806;fill-rule:nonzero;stroke:#000000;stroke-width:0.25027749;stroke-miterlimit:4;stroke-dasharray:none;stroke-dashoffset:0;stroke-opacity:1"
           id="path832"
           cx="-46.612526"
           cy="290.37628"
           rx="0.93130803"
           ry="0.86657834" />
        <path
           style="fill:#ffffff;fill-opacity:0.99523806;stroke:#000000;stroke-width:0.25027749;stroke-linecap:butt;stroke-linejoin:miter;stroke-miterlimit:4;stroke-dasharray:none;stroke-opacity:1"
           d="m -48.279417,295.97939 c 0.347894,-1.0728 0.373419,-2.78666 1.519695,-3.01276 1.092883,-0.21556 1.323442,1.89305 1.823633,2.9617 -0.772938,0.23218 -1.518356,0.48169 -3.343328,0.0511 z"
           id="path836"
           inkscape:connector-curvature="0"
           sodipodi:nodetypes="cscc" />
        <path
           style="fill:#ffffff;fill-opacity:0.99523806;stroke:#000000;stroke-width:0.25027749;stroke-linecap:butt;stroke-linejoin:miter;stroke-miterlimit:4;stroke-dasharray:none;stroke-opacity:1"
           d="m -42.605891,294.34536 c 0,0 -2.558583,-1.92458 -2.02626,-3.01277 0.5087,-1.03988 3.444641,-0.20425 3.444641,-0.20425 -0.08987,1.38114 -0.655832,2.37834 -1.418381,3.21702 z"
           id="path838"
           inkscape:connector-curvature="0"
           sodipodi:nodetypes="cscc" />
        <path
           style="fill:#ffffff;fill-opacity:0.99523806;stroke:#000000;stroke-width:0.25027749;stroke-linecap:butt;stroke-linejoin:miter;stroke-miterlimit:4;stroke-dasharray:none;stroke-opacity:1"
           d="m -41.238166,289.03474 c 0,0 -2.726012,1.19449 -3.343329,0.25532 -0.671576,-1.02173 1.671665,-3.26808 1.671665,-3.26808 1.061619,0.85898 1.554727,1.8817 1.671664,3.01276 z"
           id="path840"
           inkscape:connector-curvature="0"
           sodipodi:nodetypes="cscc" />
        <path
           style="fill:#ffffff;fill-opacity:0.99523806;stroke:#000000;stroke-width:0.25027749;stroke-linecap:butt;stroke-linejoin:miter;stroke-miterlimit:4;stroke-dasharray:none;stroke-opacity:1"
           d="m -45.240028,284.64326 c 0,0 -0.387038,3.05233 -1.519694,3.06382 -1.125333,0.0114 -1.570351,-3.01275 -1.570351,-3.01275 0.964112,-0.11667 1.869223,-0.32256 3.090045,-0.0511 z"
           id="path842"
           inkscape:connector-curvature="0"
           sodipodi:nodetypes="cscc" />
        <path
           style="fill:#ffffff;fill-opacity:0.99523806;stroke:#000000;stroke-width:0.25027749;stroke-linecap:butt;stroke-linejoin:miter;stroke-miterlimit:4;stroke-dasharray:none;stroke-opacity:1"
           d="m -50.660272,286.32836 c 0,0 2.333547,2.02527 1.772977,3.06382 -0.525117,0.97288 -3.292672,0.15319 -3.292672,0.15319 0.214032,-1.21977 0.766133,-2.26916 1.519695,-3.21701 z"
           id="path844"
           inkscape:connector-curvature="0"
           sodipodi:nodetypes="cscc" />
        <path
           style="fill:#ffffff;fill-opacity:0.99523806;stroke:#000000;stroke-width:0.25027749;stroke-linecap:butt;stroke-linejoin:miter;stroke-miterlimit:4;stroke-dasharray:none;stroke-opacity:1"
           d="m -52.078653,291.63898 c 0,0 2.392869,-0.97158 3.090045,-0.20426 0.976542,1.0748 -1.437358,3.21701 -1.469038,3.21701 -0.740609,-0.73506 -1.285637,-1.73301 -1.621007,-3.01275 z"
           id="path846"
           inkscape:connector-curvature="0"
           sodipodi:nodetypes="cscc" />
        <ellipse
           style="opacity:1;fill:#000000;fill-opacity:0.99523806;fill-rule:nonzero;stroke:#000000;stroke-width:0.3447901;stroke-miterlimit:4;stroke-dasharray:none;stroke-dashoffset:0;stroke-opacity:1"
           id="path870"
           ry="7.7517591"
           rx="7.6362238"
           cy="290.30405"
           cx="-6.4050913" />
        <ellipse
           style="opacity:1;fill:#ffffff;fill-opacity:0.99523806;fill-rule:nonzero;stroke:#000000;stroke-width:0.28780735;stroke-miterlimit:4;stroke-dasharray:none;stroke-dashoffset:0;stroke-opacity:1"
           id="path872"
           cx="-6.1543598"
           cy="290.39432"
           rx="5.8019857"
           ry="5.9208326" />
        <ellipse
           style="opacity:1;fill:none;fill-opacity:0.99523806;fill-rule:nonzero;stroke:#000000;stroke-width:0.25027749;stroke-miterlimit:4;stroke-dasharray:none;stroke-dashoffset:0;stroke-opacity:1"
           id="path874"
           cx="-6.1722655"
           cy="290.34015"
           rx="1.396962"
           ry="1.4081899" />
        <ellipse
           style="opacity:1;fill:#000000;fill-opacity:0.99523806;fill-rule:nonzero;stroke:#000000;stroke-width:0.25027749;stroke-miterlimit:4;stroke-dasharray:none;stroke-dashoffset:0;stroke-opacity:1"
           id="path876"
           cx="-6.1722655"
           cy="290.35822"
           rx="0.85966903"
           ry="0.84852463" />
        <path
           style="fill:#ffffff;fill-opacity:0.99523806;stroke:#000000;stroke-width:0.25027749;stroke-linecap:butt;stroke-linejoin:miter;stroke-miterlimit:4;stroke-dasharray:none;stroke-opacity:1"
           d="m -7.9274228,295.86459 c 0,0 0.5665146,-2.82177 1.6476991,-2.81637 1.1714285,0.006 1.7551565,3.06913 1.7551565,3.06913 -1.3897958,0.25916 -2.5848118,0.25654 -3.4028556,-0.25276 z"
           id="path878"
           inkscape:connector-curvature="0"
           sodipodi:nodetypes="cscc" />
        <path
           style="fill:#ffffff;fill-opacity:0.99523806;stroke:#000000;stroke-width:0.25027749;stroke-linecap:butt;stroke-linejoin:miter;stroke-miterlimit:4;stroke-dasharray:none;stroke-opacity:1"
           d="m -1.981382,294.34808 c -0.095245,0.12802 -2.7888497,-1.74982 -2.0417133,-3.10523 0.6452326,-1.17057 3.56570096,-0.0428 3.51031841,0.18053 -0.12831639,1.13095 -0.67259421,2.0822 -1.46860511,2.9247 z"
           id="path880"
           inkscape:connector-curvature="0"
           sodipodi:nodetypes="cscc" />
        <path
           style="fill:#ffffff;fill-opacity:0.99523806;stroke:#000000;stroke-width:0.25027749;stroke-linecap:butt;stroke-linejoin:miter;stroke-miterlimit:4;stroke-dasharray:none;stroke-opacity:1"
           d="m -0.54859783,288.85975 c 0.30649904,0.20598 -2.57863617,1.555 -3.51031317,0.39718 -0.7805127,-0.96995 1.7193357,-3.32187 1.7193357,-3.32187 0.811659,0.72185 1.48114936,1.61128 1.79097747,2.92469 z"
           id="path882"
           inkscape:connector-curvature="0"
           sodipodi:nodetypes="cscc" />
        <path
           style="fill:#ffffff;fill-opacity:0.99523806;stroke:#000000;stroke-width:0.25027749;stroke-linecap:butt;stroke-linejoin:miter;stroke-miterlimit:4;stroke-dasharray:none;stroke-opacity:1"
           d="m -7.9274228,284.77961 c 0,0 0.6195866,2.94657 1.719341,2.85249 1.41675,-0.12122 1.5538741,-3.04549 1.5044153,-3.03302 -1.1121701,-0.20505 -2.2062367,-0.2823 -3.2237563,0.18053 z"
           id="path884"
           inkscape:connector-curvature="0"
           sodipodi:nodetypes="cscc" />
        <path
           style="fill:#ffffff;fill-opacity:0.99523806;stroke:#000000;stroke-width:0.25027749;stroke-linecap:butt;stroke-linejoin:miter;stroke-miterlimit:4;stroke-dasharray:none;stroke-opacity:1"
           d="m -11.903392,289.40136 c -0.05243,0.0397 2.4087413,1.15892 3.4028555,0.0361 1.0147481,-1.14612 -1.7336915,-3.22438 -1.7551565,-3.21357 -1.149932,1.26101 -1.318197,2.19215 -1.647699,3.17747 z"
           id="path886"
           inkscape:connector-curvature="0"
           sodipodi:nodetypes="cscc" />
        <path
           style="fill:#ffffff;fill-opacity:0.99523806;stroke:#000000;stroke-width:0.25027749;stroke-linecap:butt;stroke-linejoin:miter;stroke-miterlimit:4;stroke-dasharray:none;stroke-opacity:1"
           d="m -11.795935,291.82056 c -0.121813,-0.12278 2.3802919,-1.55072 3.3670404,-0.28886 0.7444881,0.95206 -1.4686051,3.32188 -1.4686051,3.32188 -0.9013723,-0.68614 -1.4729903,-1.77117 -1.8984353,-3.03302 z"
           id="path888"
           inkscape:connector-curvature="0"
           sodipodi:nodetypes="cscc" />
        <path
           style="fill:#ffffff;fill-opacity:0.99523806;stroke:#000000;stroke-width:0.46732748;stroke-linecap:butt;stroke-linejoin:miter;stroke-miterlimit:4;stroke-dasharray:none;stroke-opacity:1"
           d="m -57.21511,291.17063 -5.874405,0.0723 c 0.958205,-12.54132 0.138702,-25.08264 4.584901,-37.62395 l 55.9501237,3.17746 -0.071642,1.58872 -0.214915,0.0723 -3.9401483,11.40995 c 0.05698,0.0919 6.84155361,-0.12671 8.5966888,-0.0723 1.0461355,0.0325 1.7909775,2.59975 1.7909775,2.59975 -5.9131092,0.62645 -10.5862309,3.21711 -15.1874847,5.92162 l 2.2208123,-20.3646 -15.2591263,-0.86658 -4.584899,31.77454 h 4.65654 l -2.579011,2.52752 h -9.527995 c 1.245455,-1.41191 -0.579122,-15.23144 -10.31603,-15.45398 -10.418812,-0.23812 -10.929398,15.33258 -10.244387,15.23734 z"
           id="path890"
           inkscape:connector-curvature="0"
           sodipodi:nodetypes="cccccccsccccccccsc" />
        <path
           style="fill:#ffffff;fill-opacity:0.99523806;stroke:#000000;stroke-width:0.46732748;stroke-linecap:butt;stroke-linejoin:miter;stroke-miterlimit:4;stroke-dasharray:none;stroke-opacity:1"
           d="m -63.304433,286.40446 1.6477,0.21663 0.573114,-7.36591 h -1.862617 z"
           id="path892"
           inkscape:connector-curvature="0"
           sodipodi:nodetypes="ccccc" />
        <path
           style="fill:#ffffff;fill-opacity:0.99523806;stroke:#000000;stroke-width:0.14240699px;stroke-linecap:butt;stroke-linejoin:miter;stroke-opacity:1"
           d="m 6.7585906,275.78887 -0.5014771,5.41611 c 0,0 -2.108745,-1.797 -1.9342559,-3.03303 0.1576561,-1.11679 2.435733,-2.38308 2.435733,-2.38308 z"
           id="path894"
           inkscape:connector-curvature="0"
           sodipodi:nodetypes="ccsc" />
        <path
           style="fill:#ffffff;fill-opacity:0.99523806;stroke:#000000;stroke-width:0.46732748;stroke-linecap:butt;stroke-linejoin:miter;stroke-miterlimit:4;stroke-dasharray:none;stroke-opacity:1"
           d="m -9.8616787,270.51717 1.7909774,-12.49316 4.3699837,0.28886 -3.8685118,12.2043 z"
           id="path896"
           inkscape:connector-curvature="0"
           sodipodi:nodetypes="ccccc" />
        <path
           style="fill:#ffffff;fill-opacity:0.99523806;stroke:#000000;stroke-width:0.44999999;stroke-linecap:butt;stroke-linejoin:miter;stroke-miterlimit:4;stroke-dasharray:none;stroke-opacity:1"
           d="m -57.358389,291.17063 c -0.790616,-0.35765 0.448535,-15.31365 10.459306,-15.23734 9.635003,0.0735 11.59474,15.16941 10.17275,15.38176 h -1.862616 c 1.125878,-1.82129 -1.511241,-10.61464 -8.811607,-9.89343 -7.908808,0.78132 -8.658127,8.27395 -8.238495,9.89343 z"
           id="path898"
           inkscape:connector-curvature="0"
           sodipodi:nodetypes="csccscc" />
        <path
           style="fill:#ffffff;fill-opacity:0.99523806;stroke:#000000;stroke-width:0.44999999;stroke-linecap:butt;stroke-linejoin:miter;stroke-miterlimit:4;stroke-dasharray:none;stroke-opacity:1"
           d="m -27.628171,291.965 c 14.142278,-14.86569 25.2327467,-19.73488 33.6703695,-19.71466 2.7921145,0.007 1.6093586,12.45726 0.8596705,18.70365 l -4.8714608,0.14442 c 1.4506947,-3.02916 -3.8752718,-11.74803 -10.674223,-9.53236 -7.0683212,2.30346 -6.7448332,10.17273 -6.4475182,10.03786 z"
           id="path900"
           inkscape:connector-curvature="0"
           sodipodi:nodetypes="csccscc" />
        <path
           style="fill:#ffffff;fill-opacity:0.99523806;stroke:#000000;stroke-width:0.46732748;stroke-linecap:butt;stroke-linejoin:miter;stroke-miterlimit:4;stroke-dasharray:none;stroke-opacity:1"
           d="m -58.576253,253.6189 h -0.859669 c 0.673148,-1.48637 1.218396,-3.14464 2.435728,-3.8996 19.0272,0.74526 51.7071116,4.38531 53.7293117,7.00484 z"
           id="path902"
           inkscape:connector-curvature="0"
           sodipodi:nodetypes="ccccc" />
        <path
           style="fill:#ffffff;fill-opacity:0.99523806;stroke:#000000;stroke-width:0.46732748;stroke-linecap:butt;stroke-linejoin:miter;stroke-miterlimit:4;stroke-dasharray:none;stroke-opacity:1"
           d="m -24.261135,288.42647 -4.513262,0.0722 3.080483,-21.3756 c 0.543431,-0.33182 1.076745,-0.61268 1.432779,0 l 0.931306,10.54337 4.943104,-1.01101 c 1.229764,0.10836 1.366234,1.31881 1.074585,2.96081 l -1.432784,0.14443 v 0.64993 l -6.160961,0.86658 -0.573115,2.81639 6.375882,-0.36109 z"
           id="path904"
           inkscape:connector-curvature="0"
           sodipodi:nodetypes="ccccccccccccc" />
        <path
           style="fill:#ffffff;fill-opacity:0.99523806;stroke:#000000;stroke-width:0.25027749;stroke-linecap:butt;stroke-linejoin:miter;stroke-miterlimit:4;stroke-dasharray:none;stroke-opacity:1"
           d="m -26.052113,280.3384 0.286557,-0.64993 h 6.232603 v 0.28886 z"
           id="path906"
           inkscape:connector-curvature="0" />
        <path
           style="fill:#ffffff;fill-opacity:0.99523806;stroke:#000000;stroke-width:0.46732748;stroke-linecap:butt;stroke-linejoin:miter;stroke-miterlimit:4;stroke-dasharray:none;stroke-opacity:1"
           d="m -11.366099,275.42779 -0.931307,-0.43329 0.573113,-1.58873 -1.361142,-0.93879 -1.074585,2.16644 -0.931313,-0.5055 2.650648,-5.19946 0.859665,0.57771 -1.146222,2.31087 1.576063,1.08323 z"
           id="path908"
           inkscape:connector-curvature="0"
           sodipodi:nodetypes="ccccccccccc" />
        <path
           style="fill:#ffffff;fill-opacity:0.99523806;stroke:#000000;stroke-width:0.46732748;stroke-linecap:butt;stroke-linejoin:miter;stroke-miterlimit:4;stroke-dasharray:none;stroke-opacity:1"
           d="m -56.283802,273.04469 2.005893,-16.32055 22.566312,2.52752 -1.074588,14.51519 z"
           id="path910"
           inkscape:connector-curvature="0" />
        <path
           style="fill:none;stroke:#000000;stroke-width:0.46732748;stroke-linecap:butt;stroke-linejoin:miter;stroke-miterlimit:4;stroke-dasharray:none;stroke-opacity:1"
           d="m -54.421187,258.45729 10.459308,8.52136 11.963724,-6.2827"
           id="path912"
           inkscape:connector-curvature="0"
           sodipodi:nodetypes="ccc" />
        <path
           style="fill:none;stroke:#000000;stroke-width:0.46732748;stroke-linecap:butt;stroke-linejoin:miter;stroke-miterlimit:4;stroke-dasharray:none;stroke-opacity:1"
           d="m -56.283802,272.46698 11.104057,-6.49934"
           id="path914"
           inkscape:connector-curvature="0" />
        <path
           style="fill:none;stroke:#000000;stroke-width:0.46732748;stroke-linecap:butt;stroke-linejoin:miter;stroke-miterlimit:4;stroke-dasharray:none;stroke-opacity:1"
           d="m -42.385821,266.11207 9.599636,6.86042"
           id="path916"
           inkscape:connector-curvature="0" />
      </g>
      <ellipse
         ry="2.0818667"
         rx="2.0017948"
         cy="249.32535"
         cx="-18.984661"
         id="path1770"
         style="opacity:1;fill:#000000;fill-opacity:0.99523806;fill-rule:nonzero;stroke:#000000;stroke-width:0.08727951;stroke-miterlimit:4;stroke-dasharray:none;stroke-dashoffset:0;stroke-opacity:1" />
      <path
         sodipodi:nodetypes="ccccccccc"
         inkscape:connector-curvature="0"
         id="path1772"
         d="m -20.006976,252.11399 c 0.877362,-0.69751 1.663501,-0.5829 2.415487,-0.16423 l 0.455158,6.43416 4.372956,-0.94669 1.16143,5.29785 -1.552417,1.09894 -0.863068,-4.5363 -5.571655,1.149 z"
         style="fill:#000000;fill-opacity:0.99523806;stroke:none;stroke-width:0.14696328px;stroke-linecap:butt;stroke-linejoin:miter;stroke-opacity:1" />
      <path
         sodipodi:nodetypes="ccccccc"
         inkscape:connector-curvature="0"
         id="path1774"
         d="m -17.619406,254.03212 2.271789,1.26953 2.405425,-1.33635 c 1.203332,-0.0281 0.674672,0.59335 0.534541,1.06908 l -3.006783,1.67043 -2.80633,-1.67043 c -0.3341,-0.53454 -0.472245,-0.9956 0.601358,-1.00226 z"
         style="fill:#000000;fill-opacity:0.99523806;stroke:#000000;stroke-width:0.26458332px;stroke-linecap:butt;stroke-linejoin:miter;stroke-opacity:1" />
    </g>
  </g>
</svg>
