<?xml version="1.0" encoding="UTF-8" standalone="no"?>
<!-- Created with Inkscape (http://www.inkscape.org/) -->

<svg
   xmlns:dc="http://purl.org/dc/elements/1.1/"
   xmlns:cc="http://creativecommons.org/ns#"
   xmlns:rdf="http://www.w3.org/1999/02/22-rdf-syntax-ns#"
   xmlns:svg="http://www.w3.org/2000/svg"
   xmlns="http://www.w3.org/2000/svg"
   xmlns:sodipodi="http://sodipodi.sourceforge.net/DTD/sodipodi-0.dtd"
   xmlns:inkscape="http://www.inkscape.org/namespaces/inkscape"
   width="110.72735mm"
   height="56.113102mm"
   viewBox="0 0 110.72735 56.113102"
   version="1.1"
   id="svg8"
   inkscape:version="0.92.2 5c3e80d, 2017-08-06"
   sodipodi:docname="plane2.svg">
  <defs
     id="defs2" />
  <sodipodi:namedview
     id="base"
     pagecolor="#ffffff"
     bordercolor="#666666"
     borderopacity="1.0"
     inkscape:pageopacity="0.0"
     inkscape:pageshadow="2"
     inkscape:zoom="0.98994949"
     inkscape:cx="33.943716"
     inkscape:cy="93.006349"
     inkscape:document-units="mm"
     inkscape:current-layer="layer1"
     showgrid="false"
     inkscape:pagecheckerboard="true"
     inkscape:snap-nodes="false"
     inkscape:window-width="1717"
     inkscape:window-height="1156"
     inkscape:window-x="-1"
     inkscape:window-y="0"
     inkscape:window-maximized="0"
     fit-margin-top="0"
     fit-margin-left="0"
     fit-margin-right="0"
     fit-margin-bottom="0" />
  <metadata
     id="metadata5">
    <rdf:RDF>
      <cc:Work
         rdf:about="">
        <dc:format>image/svg+xml</dc:format>
        <dc:type
           rdf:resource="http://purl.org/dc/dcmitype/StillImage" />
        <dc:title></dc:title>
      </cc:Work>
    </rdf:RDF>
  </metadata>
  <g
     inkscape:label="Layer 1"
     inkscape:groupmode="layer"
     id="layer1"
     transform="translate(-58.612138,-73.931481)">
    <g
       id="g893"
       transform="rotate(-8.9880566,124.61112,107.59168)">
      <path
         sodipodi:nodetypes="ssscscss"
         inkscape:connector-curvature="0"
         id="path826"
         d="m 72.563676,97.216028 c -3.368708,-3.514695 -8.130547,-19.44164 -7.617181,-22.584275 0.124666,-0.763158 4.75403,-0.622217 8.953529,-0.267272 0,0 15.73241,15.784107 15.768902,15.768902 0.306505,0.421445 47.164774,-6.998325 66.149204,-4.009041 3.18678,0.50179 7.88445,5.61266 7.88445,5.61266 10.45345,2.193157 9.06191,8.966828 1.46999,12.561668 -4.00041,1.89423 -77.079029,9.12023 -92.608894,-7.082642 z"
         style="fill:#ffffff;fill-opacity:1;stroke:#000000;stroke-width:0.465;stroke-linecap:butt;stroke-linejoin:miter;stroke-miterlimit:4;stroke-dasharray:none;stroke-opacity:1" />
      <path
         sodipodi:nodetypes="ssssss"
         inkscape:connector-curvature="0"
         id="path828"
         d="m 71.82108,93.859555 c -0.990417,0.01113 -7.010906,1.681102 -12.202394,5.912498 -2.6336,2.146557 6.542966,2.394957 9.938033,2.264367 5.089282,-0.19578 13.835111,-3.455781 14.592554,-4.528728 1.010542,-1.431471 3.060219,-3.821042 -1.132182,-3.773936 z"
         style="fill:#ffffff;fill-opacity:1;stroke:#000000;stroke-width:0.449;stroke-linecap:butt;stroke-linejoin:miter;stroke-miterlimit:4;stroke-dasharray:none;stroke-opacity:1" />
      <path
         sodipodi:nodetypes="csscc"
         inkscape:connector-curvature="0"
         id="path830"
         d="m 109.31324,87.460689 c 0.47267,-0.07324 -0.98166,-12.76822 0,-13.898014 1.77488,-2.042714 6.07983,-1.797816 7.08264,-0.534541 l 10.28988,12.962573 c -5.65714,0.623694 -11.36344,1.198226 -17.37252,1.469982 z"
         style="fill:#ffffff;fill-opacity:1;stroke:#000000;stroke-width:0.465;stroke-linecap:butt;stroke-linejoin:miter;stroke-miterlimit:4;stroke-dasharray:none;stroke-opacity:1" />
      <path
         sodipodi:nodetypes="cssssc"
         inkscape:connector-curvature="0"
         id="path832"
         d="m 75.50364,115.92489 c 0,0 26.03228,-14.78048 32.74052,-15.63526 6.71489,-0.855626 16.05547,-2.265206 22.45064,1.87088 7.17115,4.63796 -39.412552,22.00458 -46.371265,21.38156 -4.333223,-0.38796 -11.088191,-1.28389 -11.893494,-3.60813 -0.551283,-1.5911 3.073599,-4.00905 3.073599,-4.00905 z"
         style="fill:#ffffff;fill-opacity:1;stroke:#000000;stroke-width:0.465;stroke-linecap:butt;stroke-linejoin:miter;stroke-miterlimit:4;stroke-dasharray:none;stroke-opacity:1" />
      <path
         sodipodi:nodetypes="cccc"
         inkscape:connector-curvature="0"
         id="path834"
         d="m 97.286108,120.46848 c 5.790842,2.81819 11.581682,2.60758 17.372522,2.67269 3.66763,-4.08157 2.61066,-6.77354 0.26726,-9.08716 z"
         style="fill:#ffffff;fill-opacity:1;stroke:#000000;stroke-width:0.465;stroke-linecap:butt;stroke-linejoin:miter;stroke-miterlimit:4;stroke-dasharray:none;stroke-opacity:1" />
      <path
         sodipodi:nodetypes="ccccc"
         inkscape:connector-curvature="0"
         id="path836"
         d="m 115.06763,114.1485 c 0.37183,0.0542 2.17521,2.40985 2.00453,3.34086 l 9.07906,0.30642 c 1.9526,-2.53121 4.27055,-4.96094 0,-9.2208 z"
         style="fill:#ffffff;fill-opacity:1;stroke:#000000;stroke-width:0.465;stroke-linecap:butt;stroke-linejoin:miter;stroke-miterlimit:4;stroke-dasharray:none;stroke-opacity:1" />
      <ellipse
         ry="2.5277159"
         rx="1.6772693"
         cy="118.57161"
         cx="113.74721"
         id="path838"
         style="opacity:1;fill:#ffffff;fill-opacity:1;fill-rule:nonzero;stroke:#000000;stroke-width:0.465;stroke-miterlimit:4;stroke-dasharray:none;stroke-dashoffset:0;stroke-opacity:1" />
      <ellipse
         ry="2.3623512"
         rx="1.6536458"
         cy="113.35081"
         cx="125.2991"
         id="path840"
         style="opacity:1;fill:#ffffff;fill-opacity:1;fill-rule:nonzero;stroke:#000000;stroke-width:0.46499997;stroke-miterlimit:4;stroke-dasharray:none;stroke-dashoffset:0;stroke-opacity:1" />
      <path
         sodipodi:nodetypes="csscc"
         inkscape:connector-curvature="0"
         id="path842"
         d="m 159.22582,87.928409 c 0.12256,0.305911 -5.27841,0.384114 -7.95127,1.002263 -1.77588,0.410706 -1.88147,4.63727 0.20045,4.81085 6.07529,0.506527 12.94751,-1.545841 12.2944,-1.937703 -1.51453,-1.385912 -3.02905,-2.983289 -4.54358,-3.87541 z"
         style="fill:#ffffff;fill-opacity:1;stroke:#000000;stroke-width:0.465;stroke-linecap:butt;stroke-linejoin:miter;stroke-miterlimit:4;stroke-dasharray:none;stroke-opacity:1" />
      <path
         inkscape:connector-curvature="0"
         id="path844"
         d="m 154.41497,88.529767 0.53454,5.14494"
         style="fill:none;stroke:#000000;stroke-width:0.465;stroke-linecap:butt;stroke-linejoin:miter;stroke-miterlimit:4;stroke-dasharray:none;stroke-opacity:1" />
      <path
         inkscape:connector-curvature="0"
         id="path846"
         d="m 157.2213,88.396132 3.0736,4.610399"
         style="fill:none;stroke:#000000;stroke-width:0.465;stroke-linecap:butt;stroke-linejoin:miter;stroke-miterlimit:4;stroke-dasharray:none;stroke-opacity:1" />
      <ellipse
         ry="2.0713389"
         rx="2.1381562"
         cy="95.545586"
         cx="101.16153"
         id="path848"
         style="opacity:1;fill:#ffffff;fill-opacity:1;fill-rule:nonzero;stroke:#000000;stroke-width:0.46499997;stroke-miterlimit:4;stroke-dasharray:none;stroke-dashoffset:0;stroke-opacity:1" />
      <ellipse
         style="opacity:1;fill:#ffffff;fill-opacity:1;fill-rule:nonzero;stroke:#000000;stroke-width:0.46499997;stroke-miterlimit:4;stroke-dasharray:none;stroke-dashoffset:0;stroke-opacity:1"
         id="ellipse850"
         cx="110.91687"
         cy="95.411949"
         rx="2.1381562"
         ry="2.0713389" />
      <ellipse
         ry="2.0713389"
         rx="2.1381562"
         cy="95.144676"
         cx="119.73676"
         id="ellipse852"
         style="opacity:1;fill:#ffffff;fill-opacity:1;fill-rule:nonzero;stroke:#000000;stroke-width:0.46499997;stroke-miterlimit:4;stroke-dasharray:none;stroke-dashoffset:0;stroke-opacity:1" />
      <ellipse
         style="opacity:1;fill:#ffffff;fill-opacity:1;fill-rule:nonzero;stroke:#000000;stroke-width:0.46499997;stroke-miterlimit:4;stroke-dasharray:none;stroke-dashoffset:0;stroke-opacity:1"
         id="ellipse854"
         cx="129.0912"
         cy="94.610138"
         rx="2.1381562"
         ry="2.0713389" />
      <ellipse
         ry="2.0713389"
         rx="2.1381562"
         cy="93.941956"
         cx="137.24292"
         id="ellipse856"
         style="opacity:1;fill:#ffffff;fill-opacity:1;fill-rule:nonzero;stroke:#000000;stroke-width:0.46499997;stroke-miterlimit:4;stroke-dasharray:none;stroke-dashoffset:0;stroke-opacity:1" />
    </g>
  </g>
</svg>
