<?xml version="1.0" standalone="no"?>
<!DOCTYPE svg PUBLIC "-//W3C//DTD SVG 20010904//EN"
 "http://www.w3.org/TR/2001/REC-SVG-20010904/DTD/svg10.dtd">
<svg version="1.0" xmlns="http://www.w3.org/2000/svg"
 width="848.000000pt" height="848.000000pt" viewBox="0 0 848.000000 848.000000"
 preserveAspectRatio="xMidYMid meet">
<metadata>
Created by potrace 1.11, written by Peter Selinger 2001-2013
</metadata>
<g transform="translate(0.000000,848.000000) scale(0.100000,-0.100000)"
fill="#000000" stroke="none">
<path d="M5575 8459 c-27 -4 -68 -10 -90 -13 -73 -10 -268 -64 -365 -101 -110
-42 -263 -114 -268 -127 -2 -4 -9 -8 -14 -8 -11 0 -157 -87 -168 -99 -3 -4
-31 -25 -63 -49 -73 -55 -183 -166 -199 -203 -7 -16 -16 -29 -19 -29 -4 0 -10
-11 -13 -25 -4 -14 -10 -24 -14 -21 -4 2 -37 7 -74 10 -37 4 -75 9 -86 11 -27
5 -253 18 -282 17 -22 -2 -160 -24 -217 -36 -38 -8 -177 -47 -198 -55 -11 -5
-54 -21 -95 -36 -201 -74 -454 -229 -586 -359 -12 -12 -34 -32 -50 -47 -37
-32 -176 -185 -188 -207 -5 -9 -18 -26 -28 -36 -31 -33 -144 -207 -183 -281
-21 -39 -42 -73 -49 -77 -6 -4 -8 -8 -4 -8 4 0 -8 -30 -26 -67 -77 -153 -177
-422 -211 -563 -2 -8 -13 -51 -24 -95 -12 -44 -24 -93 -27 -110 -3 -16 -9 -49
-15 -73 -5 -23 -12 -59 -15 -80 -3 -20 -7 -44 -9 -52 -3 -8 -7 -33 -10 -55 -3
-22 -8 -58 -12 -80 -3 -22 -7 -56 -10 -75 -2 -19 -5 -51 -8 -70 -4 -32 -12
-139 -20 -250 -2 -25 -4 -118 -5 -207 l-1 -163 -36 0 c-102 0 -157 -105 -156
-300 0 -65 12 -208 20 -245 2 -11 6 -33 9 -50 3 -16 15 -66 26 -110 11 -44 25
-100 30 -125 6 -25 14 -49 19 -54 5 -6 9 -16 9 -22 0 -35 75 -169 116 -209 50
-49 84 -60 161 -51 l49 5 58 -137 c33 -75 63 -138 68 -140 4 -2 8 -9 8 -17 0
-28 218 -393 260 -435 3 -3 32 -39 64 -80 81 -102 342 -360 365 -360 3 0 24
-16 46 -35 22 -19 45 -35 51 -35 7 0 14 -7 18 -15 3 -8 10 -15 17 -15 6 0 23
-8 37 -19 15 -10 68 -40 117 -66 50 -26 94 -51 99 -56 5 -4 10 -70 12 -146 3
-76 6 -177 9 -224 l4 -86 -177 -3 c-203 -2 -307 -6 -442 -15 -207 -13 -234
-15 -341 -30 -20 -3 -54 -8 -75 -10 -21 -2 -50 -7 -64 -10 -13 -2 -42 -7 -65
-10 -52 -8 -186 -41 -250 -63 -27 -9 -52 -17 -55 -17 -32 -9 -172 -77 -188
-92 -7 -7 -17 -13 -21 -13 -12 0 -123 -110 -143 -142 -49 -75 -99 -195 -112
-268 -2 -14 -9 -52 -15 -85 -6 -33 -13 -82 -16 -110 -3 -27 -8 -61 -10 -75 -2
-14 -7 -45 -10 -70 -9 -65 -15 -105 -40 -245 -9 -55 -14 -74 -40 -172 -14 -54
-35 -122 -45 -150 -11 -29 -16 -53 -12 -53 4 0 2 -4 -4 -8 -6 -4 -16 -22 -22
-39 l-11 -33 1437 5 c790 3 2025 7 2745 10 719 2 1311 6 1316 10 5 3 12 2 14
-2 3 -5 48 -7 101 -5 89 3 96 5 91 22 -3 10 -8 31 -10 46 -3 16 -10 52 -16 79
-6 28 -13 64 -15 80 -9 54 -103 429 -124 495 -145 451 -322 690 -610 827 -79
38 -209 82 -255 88 -11 1 -29 5 -40 8 -21 6 -77 16 -130 22 -16 2 -46 6 -65 9
-179 25 -725 25 -1022 1 -54 -4 -58 -3 -60 18 0 12 -2 33 -4 47 -2 25 -10 122
-19 257 -2 39 -5 75 -6 80 -4 23 2 53 11 53 15 0 266 125 280 140 3 3 25 18
50 34 153 98 382 312 500 468 8 11 25 32 36 46 24 31 142 205 163 242 92 160
226 442 238 501 5 28 8 29 61 29 78 0 128 27 175 94 20 30 37 58 37 63 0 5 6
18 14 28 12 16 13 14 10 -21 -1 -21 -5 -86 -9 -144 -3 -58 -8 -136 -10 -175
-25 -401 -25 -1071 0 -1225 2 -14 7 -45 10 -70 13 -116 60 -260 103 -320 112
-157 331 -208 517 -121 33 15 79 46 102 67 42 40 106 124 99 131 -2 2 -16 -2
-32 -9 -55 -22 -139 -33 -190 -23 -66 12 -139 102 -160 195 0 3 -4 16 -7 30
-25 94 -26 381 -3 570 2 19 7 64 11 100 4 36 9 72 10 81 2 9 6 40 10 69 4 29
9 62 11 74 2 12 7 41 10 66 3 25 7 52 9 60 3 8 7 32 11 54 3 21 7 48 10 59 2
12 6 37 9 57 6 38 12 70 20 110 8 38 15 72 20 105 3 17 10 53 15 80 6 28 13
61 15 75 3 14 8 39 10 55 3 17 15 75 26 130 12 55 23 111 26 125 2 14 10 52
18 85 7 33 16 76 19 95 3 19 15 80 27 135 11 55 23 111 25 125 3 14 7 32 10
40 3 8 8 33 10 55 3 22 10 56 14 75 5 19 12 51 15 70 3 19 8 43 11 53 3 10 7
30 9 45 2 15 8 47 14 72 5 25 13 61 16 80 3 19 12 67 20 105 8 39 17 84 20
100 2 17 7 39 9 50 2 11 7 40 11 65 4 25 9 54 11 65 10 52 45 242 49 270 11
77 17 117 26 167 5 32 12 77 15 100 3 24 7 54 9 68 7 49 20 151 30 228 10 80
17 149 20 187 1 22 6 85 11 140 16 191 8 734 -12 766 -2 4 -6 28 -9 55 -4 26
-8 52 -11 56 -3 5 -7 21 -10 36 -3 15 -7 34 -11 42 -3 8 -8 24 -10 35 -18 103
-168 353 -308 513 -93 108 -254 248 -355 310 -139 84 -323 154 -470 178 -19 3
-55 9 -79 14 -54 10 -300 10 -366 -1z m13 -1135 c40 -20 72 -40 72 -45 0 -5 5
-9 10 -9 14 0 63 -43 145 -127 83 -85 78 -79 142 -173 80 -120 189 -345 209
-432 1 -5 2 -9 4 -10 1 -2 3 -10 5 -18 24 -122 35 -184 40 -230 4 -30 8 -66
10 -80 25 -150 24 -887 -1 -1295 -3 -55 -6 -107 -6 -115 1 -36 -7 -41 -32 -25
-14 9 -27 16 -30 16 -4 -1 -18 -1 -33 -1 l-28 0 -1 178 c-1 195 -12 597 -18
707 -10 153 -18 251 -22 280 -3 17 -5 37 -5 45 0 14 -11 97 -25 185 -3 22 -7
54 -10 70 -2 17 -6 41 -9 55 -5 23 -21 99 -30 145 -2 11 -4 20 -5 20 -2 0 -4
9 -6 20 -1 11 -12 52 -24 90 -12 39 -22 75 -23 80 -2 9 -7 21 -33 90 -4 11 -8
22 -9 25 -62 179 -229 433 -362 553 -13 12 -23 24 -23 29 0 16 27 8 98 -28z
m-2180 -5667 c1 -18 5 -43 7 -55 3 -12 7 -32 10 -43 2 -12 14 -40 26 -62 16
-32 17 -38 4 -27 -21 18 -43 60 -49 96 -5 28 -9 101 -7 117 2 18 7 4 9 -26z
m1167 -231 c-14 -19 -34 -37 -43 -41 -9 -3 0 11 21 31 20 21 37 44 38 53 0 10
2 11 6 4 2 -7 -7 -28 -22 -47z"/>
</g>
</svg>
